<svg xmlns="http://www.w3.org/2000/svg" version="1.1" xmlns:xlink="http://www.w3.org/1999/xlink" xmlns:svgjs="http://svgjs.dev/svgjs" width="1000" height="999" viewBox="0 0 1000 999"><g transform="matrix(1,0,0,1,-0.215743440233382,-0.21552769679306039)"><svg viewBox="0 0 343 343" data-background-color="#c8c8c8" preserveAspectRatio="xMidYMid meet" height="999" width="1000" xmlns="http://www.w3.org/2000/svg" xmlns:xlink="http://www.w3.org/1999/xlink"><g id="tight-bounds" transform="matrix(1,0,0,1,0.0740000000000407,0.07400000000001228)"><svg viewBox="0 0 342.85155851775386 342.85155851775386" height="342.85155851775386" width="342.85155851775386"><g><svg></svg></g><g><svg viewBox="0 0 342.85155851775386 342.85155851775386" height="342.85155851775386" width="342.85155851775386"><g><path d="M0 171.426c0-94.676 76.75-171.426 171.426-171.426 94.676 0 171.426 76.75 171.426 171.426 0 94.676-76.75 171.426-171.426 171.426-94.676 0-171.426-76.75-171.426-171.426zM171.426 337.168c91.537 0 165.742-74.205 165.742-165.742 0-91.537-74.205-165.742-165.742-165.742-91.537 0-165.742 74.205-165.742 165.742 0 91.537 74.205 165.742 165.742 165.742z" data-fill-palette-color="tertiary" fill="#000000" stroke="transparent"></path><ellipse rx="164.56874808852186" ry="164.56874808852186" cx="171.42577925887693" cy="171.42577925887693" fill="#000000" stroke="transparent" stroke-width="0" fill-opacity="1" data-fill-palette-color="tertiary"></ellipse></g><g transform="matrix(1,0,0,1,64.84655864529837,88.92198206352123)"><svg viewBox="0 0 213.1584412271571 165.0075943907114" height="165.0075943907114" width="213.1584412271571"><g><svg viewBox="0 0 213.1584412271571 165.0075943907114" height="165.0075943907114" width="213.1584412271571"><g><svg viewBox="0 0 213.1584412271571 165.0075943907114" height="165.0075943907114" width="213.1584412271571"><g transform="matrix(1,0,0,1,0,101.98131310983514)"><svg viewBox="0 0 213.1584412271571 63.02628128087626" height="63.02628128087626" width="213.1584412271571"><g id="textblocktransform"><svg viewBox="0 0 213.1584412271571 63.02628128087626" height="63.02628128087626" width="213.1584412271571" id="textblock"><g><svg viewBox="0 0 213.1584412271571 63.02628128087626" height="63.02628128087626" width="213.1584412271571"><g transform="matrix(1,0,0,1,0,0)"><svg width="213.1584412271571" viewBox="3.700000047683716 -37.5 167.72999572753906 49.599998474121094" height="63.02628128087626" data-palette-color="#c8c8c8"><path d="M3.7 0L3.7-35 12.7-35Q18.2-35 21.28-32.1 24.35-29.2 24.35-23.65L24.35-23.65Q24.35-18.1 21.28-15.18 18.2-12.25 12.7-12.25L12.7-12.25 8.3-12.25 8.3 0 3.7 0ZM8.3-16.45L12.3-16.45Q19.6-16.45 19.6-23.65L19.6-23.65Q19.6-30.85 12.3-30.85L12.3-30.85 8.3-30.85 8.3-16.45ZM27.9-30.05L27.9-35 32.25-35 32.25-30.05 27.9-30.05ZM27.9 0L27.9-24.5 32.25-24.5 32.25 0 27.9 0ZM48.45-25Q52.25-25 54.27-22.03 56.3-19.05 56.3-14L56.3-14 56.3 0 51.95 0 51.95-13.45Q51.95-17.35 50.82-19.23 49.7-21.1 47.45-21.1L47.45-21.1Q45.8-21.1 44.4-20.18 43-19.25 42.05-17.6L42.05-17.6 42.05 0 37.7 0 37.7-24.5 41.4-24.5 41.7-21.45Q42.75-23.1 44.52-24.05 46.3-25 48.45-25L48.45-25ZM70.39 0.5Q67.09 0.5 64.69-1.18 62.29-2.85 61.02-5.75 59.74-8.65 59.74-12.25L59.74-12.25Q59.74-15.85 61.02-18.75 62.29-21.65 64.69-23.33 67.09-25 70.39-25L70.39-25Q73.64-25 76.04-23.33 78.44-21.65 79.69-18.75 80.94-15.85 80.94-12.25L80.94-12.25Q80.94-8.65 79.69-5.75 78.44-2.85 76.04-1.18 73.64 0.5 70.39 0.5L70.39 0.5ZM70.39-3.35Q73.29-3.35 74.89-5.7 76.49-8.05 76.49-12.25L76.49-12.25Q76.49-16.45 74.89-18.78 73.29-21.1 70.39-21.1L70.39-21.1Q67.39-21.1 65.79-18.78 64.19-16.45 64.19-12.25L64.19-12.25Q64.19-8 65.79-5.68 67.39-3.35 70.39-3.35L70.39-3.35ZM95.59-25Q98.54-25 100.77-23.33 102.99-21.65 104.17-18.75 105.34-15.85 105.34-12.25L105.34-12.25Q105.34-6.65 102.79-3.08 100.24 0.5 95.59 0.5L95.59 0.5Q93.69 0.5 92.07-0.18 90.44-0.85 89.29-2.15L89.29-2.15 89.29 12.1 84.94 12.1 84.94-24.5 88.29-24.5 88.69-21.55Q91.34-25 95.59-25L95.59-25ZM94.79-3.35Q97.64-3.35 99.27-5.7 100.89-8.05 100.89-12.25L100.89-12.25Q100.89-16.4 99.27-18.75 97.64-21.1 94.79-21.1L94.79-21.1Q93.29-21.1 91.89-20.1 90.49-19.1 89.62-17.1 88.74-15.1 88.74-12.25L88.74-12.25Q88.74-9.3 89.62-7.3 90.49-5.3 91.87-4.33 93.24-3.35 94.79-3.35L94.79-3.35ZM114.69 0.5Q111.89 0.5 110.54-1.2 109.19-2.9 109.19-5.4L109.19-5.4 109.19-37.5 113.54-37.5 113.54-8Q113.54-5.8 113.76-4.78 113.99-3.75 114.64-3.4 115.29-3.05 116.74-3.05L116.74-3.05 116.19 0.5 114.69 0.5ZM125.44 0.5Q122.64 0.5 120.84-1.5 119.04-3.5 119.04-6.6L119.04-6.6Q119.04-11.2 122.89-13.23 126.74-15.25 131.49-15.35L131.49-15.35Q131.49-18.55 130.54-19.8 129.59-21.05 127.34-21.05L127.34-21.05Q124.44-21.05 121.44-18.8L121.44-18.8 120.89-22.45Q124.04-25 128.19-25L128.19-25Q132.14-25 134.04-22.73 135.94-20.45 135.94-15.4L135.94-15.4 135.94-8.25Q135.94-5.4 136.34-4.23 136.74-3.05 138.09-3.05L138.09-3.05 138.64-3.05 138.09 0.5 137.14 0.5Q134.84 0.5 133.74-0.35 132.64-1.2 131.94-3.1L131.94-3.1Q130.79-1.45 129.09-0.48 127.39 0.5 125.44 0.5L125.44 0.5ZM126.79-3.05Q127.99-3.05 129.29-3.98 130.59-4.9 131.49-6.4L131.49-6.4 131.49-12.25Q127.64-12.05 125.64-10.78 123.64-9.5 123.64-6.85L123.64-6.85Q123.64-3.05 126.79-3.05L126.79-3.05ZM148.63 0.5Q144.33 0.5 141.18-1.5L141.18-1.5 141.73-5.9Q144.93-3.4 148.33-3.4L148.33-3.4Q150.13-3.4 151.16-4.15 152.18-4.9 152.18-6.35L152.18-6.35Q152.18-7.45 151.71-8.15 151.23-8.85 150.13-9.5 149.03-10.15 146.73-11.2L146.73-11.2Q144.03-12.45 142.78-14.05 141.53-15.65 141.53-18.2L141.53-18.2Q141.53-21.2 143.63-23.1 145.73-25 149.28-25L149.28-25Q152.88-25 155.58-23.4L155.58-23.4 155.03-19.35Q153.68-20.25 152.48-20.68 151.28-21.1 149.63-21.1L149.63-21.1Q147.88-21.1 146.88-20.35 145.88-19.6 145.88-18.25L145.88-18.25Q145.88-16.9 146.76-16.2 147.63-15.5 150.18-14.35L150.18-14.35Q153.73-12.75 155.18-11.13 156.63-9.5 156.63-6.85L156.63-6.85Q156.63-3.4 154.48-1.45 152.33 0.5 148.63 0.5L148.63 0.5ZM167.38 0.5Q164.53 0.5 163.16-1.2 161.78-2.9 161.78-5.35L161.78-5.35 161.78-21.05 158.38-21.05 158.78-24.5 161.78-24.5 161.78-30.55 166.13-31 166.13-24.5 171.43-24.5 171.43-21.05 166.13-21.05 166.13-7.1Q166.13-4.85 166.96-3.95 167.78-3.05 169.83-3.05L169.83-3.05 171.38-3.05 170.98 0.5 167.38 0.5Z" opacity="1" transform="matrix(1,0,0,1,0,0)" fill="#c8c8c8" class="undefined-text-0" data-fill-palette-color="quaternary" id="text-0"></path></svg></g></svg></g></svg></g></svg></g><g transform="matrix(1,0,0,1,63.02790694845763,0)"><svg viewBox="0 0 87.10262733024186 87.102320730171" height="87.102320730171" width="87.10262733024186"><g><svg xmlns="http://www.w3.org/2000/svg" xmlns:xlink="http://www.w3.org/1999/xlink" version="1.1" x="0" y="0" viewBox="7.734947204589844 7.735245704650879 84.53054809570312 84.5302505493164" enable-background="new 0 0 100 100" xml:space="preserve" height="87.102320730171" width="87.10262733024186" class="icon-icon-0" data-fill-palette-color="quaternary" id="icon-0"><g fill="#c8c8c8" data-fill-palette-color="quaternary"><g fill="#c8c8c8" data-fill-palette-color="quaternary"><g fill="#c8c8c8" data-fill-palette-color="quaternary"><path d="M28.368 14.767C42.162 16.327 48.04 25.762 49.69 30.695c1.07 3.198 1.472 5.094 1.472 9.275 0 0.817 0.044 2.076-1.054 2.216-0.77 0.099-1.209-0.509-1.273-1.182-0.289-3.026-1.159-6.569-4.008-9.85-2.253-2.594-7.472-7.802-16.652-7.021-2.669 0.228-5.052-1.868-5.129-4.564C22.964 16.703 25.531 14.446 28.368 14.767z" fill="#c8c8c8" data-fill-palette-color="quaternary"></path><path d="M71.633 85.232c-13.794-1.561-19.671-10.995-21.322-15.929-1.07-3.198-1.472-5.094-1.472-9.275 0-0.817-0.044-2.076 1.054-2.216 0.77-0.099 1.209 0.509 1.273 1.182 0.289 3.026 1.159 6.569 4.008 9.85 2.253 2.594 7.472 7.802 16.652 7.021 2.669-0.228 5.052 1.868 5.129 4.564C77.037 83.296 74.47 85.553 71.633 85.232z" fill="#c8c8c8" data-fill-palette-color="quaternary"></path></g><g fill="#c8c8c8" data-fill-palette-color="quaternary"><path d="M14.768 71.633c1.56-13.794 10.995-19.672 15.928-21.322 3.198-1.07 5.094-1.472 9.276-1.472 0.817 0 2.076-0.045 2.216 1.054 0.098 0.77-0.509 1.209-1.182 1.273-3.026 0.288-6.569 1.159-9.849 4.008-2.594 2.254-7.802 7.473-7.021 16.652 0.228 2.669-1.868 5.052-4.564 5.129C16.704 77.036 14.447 74.47 14.768 71.633z" fill="#c8c8c8" data-fill-palette-color="quaternary"></path><path d="M85.233 28.367c-1.56 13.794-10.995 19.672-15.928 21.322-3.198 1.07-5.094 1.472-9.276 1.472-0.817 0-2.076 0.045-2.216-1.054-0.098-0.77 0.509-1.209 1.182-1.273 3.026-0.288 6.569-1.159 9.849-4.008 2.594-2.254 7.802-7.473 7.021-16.652-0.228-2.669 1.868-5.052 4.564-5.129C83.297 22.964 85.554 25.53 85.233 28.367z" fill="#c8c8c8" data-fill-palette-color="quaternary"></path></g></g><g fill="#c8c8c8" data-fill-palette-color="quaternary"><g fill="#c8c8c8" data-fill-palette-color="quaternary"><path d="M13.65 30.304c12.726-5.546 22.533-0.314 26.43 3.133 2.526 2.234 3.821 3.676 5.912 7.297 0.409 0.708 1.077 1.775 0.195 2.446-0.617 0.47-1.302 0.164-1.693-0.387-1.763-2.477-4.289-5.109-8.396-6.525-3.249-1.12-10.373-3.021-17.931 2.246-2.198 1.531-5.309 0.907-6.724-1.389C9.938 34.682 11.033 31.444 13.65 30.304z" fill="#c8c8c8" data-fill-palette-color="quaternary"></path><path d="M86.351 69.695c-12.726 5.546-22.533 0.314-26.43-3.133-2.526-2.234-3.821-3.676-5.912-7.297-0.409-0.708-1.077-1.775-0.196-2.446 0.618-0.47 1.302-0.164 1.694 0.387 1.763 2.477 4.289 5.109 8.396 6.525 3.249 1.12 10.373 3.021 17.931-2.245 2.198-1.532 5.309-0.908 6.724 1.388C90.063 65.317 88.968 68.555 86.351 69.695z" fill="#c8c8c8" data-fill-palette-color="quaternary"></path></g><g fill="#c8c8c8" data-fill-palette-color="quaternary"><path d="M30.304 86.351c-5.546-12.726-0.314-22.533 3.133-26.43 2.235-2.525 3.676-3.821 7.298-5.912 0.708-0.409 1.775-1.076 2.445-0.195 0.47 0.617 0.164 1.302-0.387 1.693-2.477 1.764-5.109 4.289-6.525 8.396-1.12 3.248-3.021 10.372 2.246 17.931 1.531 2.198 0.908 5.31-1.389 6.725C34.683 90.062 31.445 88.968 30.304 86.351z" fill="#c8c8c8" data-fill-palette-color="quaternary"></path><path d="M69.696 13.649c5.546 12.726 0.314 22.533-3.133 26.43-2.234 2.526-3.675 3.821-7.297 5.913-0.708 0.408-1.775 1.076-2.446 0.195-0.47-0.618-0.163-1.303 0.388-1.694 2.477-1.763 5.109-4.288 6.525-8.396 1.12-3.249 3.021-10.372-2.246-17.932-1.532-2.198-0.908-5.309 1.388-6.724C65.318 9.938 68.556 11.032 69.696 13.649z" fill="#c8c8c8" data-fill-palette-color="quaternary"></path></g></g><g fill="#c8c8c8" data-fill-palette-color="quaternary"><g fill="#c8c8c8" data-fill-palette-color="quaternary"><path d="M8.671 51.118c8.248-11.166 19.357-11.539 24.456-10.502 3.305 0.672 5.147 1.272 8.769 3.363 0.708 0.408 1.82 0.999 1.392 2.021-0.299 0.716-1.045 0.793-1.66 0.512-2.765-1.263-6.269-2.28-10.533-1.453-3.374 0.654-10.494 2.57-14.406 10.911-1.138 2.425-4.144 3.44-6.518 2.159C7.646 56.766 6.976 53.414 8.671 51.118z" fill="#c8c8c8" data-fill-palette-color="quaternary"></path><path d="M91.329 48.882C83.081 60.047 71.971 60.42 66.874 59.383c-3.305-0.672-5.147-1.272-8.769-3.363-0.708-0.408-1.82-0.999-1.393-2.021 0.3-0.716 1.046-0.793 1.66-0.512 2.766 1.264 6.269 2.28 10.534 1.453 3.373-0.654 10.493-2.569 14.406-10.91 1.138-2.426 4.144-3.441 6.517-2.16C92.354 43.233 93.025 46.585 91.329 48.882z" fill="#c8c8c8" data-fill-palette-color="quaternary"></path></g><g fill="#c8c8c8" data-fill-palette-color="quaternary"><path d="M51.119 91.329C39.953 83.081 39.58 71.972 40.617 66.874c0.673-3.305 1.272-5.147 3.364-8.77 0.409-0.708 1-1.819 2.02-1.392 0.716 0.3 0.793 1.045 0.512 1.66-1.263 2.765-2.28 6.269-1.453 10.533 0.654 3.374 2.57 10.493 10.911 14.406 2.425 1.138 3.44 4.144 2.159 6.518C56.766 92.354 53.415 93.025 51.119 91.329z" fill="#c8c8c8" data-fill-palette-color="quaternary"></path><path d="M48.882 8.672c11.166 8.247 11.538 19.356 10.501 24.455-0.672 3.305-1.271 5.147-3.362 8.77-0.409 0.707-1 1.819-2.021 1.392-0.716-0.3-0.792-1.046-0.511-1.661 1.263-2.765 2.28-6.268 1.453-10.533-0.655-3.373-2.57-10.492-10.911-14.406-2.426-1.137-3.44-4.144-2.159-6.517C43.234 7.646 46.585 6.976 48.882 8.672z" fill="#c8c8c8" data-fill-palette-color="quaternary"></path></g></g></g></svg></g></svg></g><g></g></svg></g></svg></g></svg></g></svg></g><defs></defs></svg><rect width="342.85155851775386" height="342.85155851775386" fill="none" stroke="none" visibility="hidden"></rect></g></svg></g></svg>